<?xml version="1.0" encoding="UTF-8" standalone="no"?>
<!-- Created with Inkscape (http://www.inkscape.org/) -->

<svg
   width="16"
   height="16"
   viewBox="0 0 16 16"
   version="1.1"
   id="svg1"
   xml:space="preserve"
   xmlns="http://www.w3.org/2000/svg"
   xmlns:svg="http://www.w3.org/2000/svg"><defs
     id="defs1" /><g
     id="layer1"><path
       style="fill:#ffffff;fill-opacity:0;stroke:#ffffff;stroke-width:0.241936;stroke-dasharray:none;stroke-opacity:1"
       d="m 15.670819,9.8214323 c -0.06656,0.061565 -0.147916,0.087253 -0.247031,0.090851 C 15.285758,9.9173087 2.4633517,9.8254022 2.3913032,9.8187201 2.1559984,9.7969056 1.9302952,9.7253678 1.7554859,9.6171973 1.7052525,9.5861129 1.6664248,9.5515473 0.99444767,8.9396885 L 0.28634339,8.2949348 0.2575216,8.2501296 C 0.17385568,8.1200671 0.15119916,7.9743509 0.19328601,7.8370029 0.22626871,7.7293662 0.17410642,7.7921074 0.85667495,7.0390657 1.2478361,6.607521 1.4881783,6.3458064 1.5260666,6.3101536 1.6017161,6.2389723 1.6694671,6.1894547 1.7644232,6.1359437 1.8487373,6.0884298 2.0446408,6.0089821 2.082093,6.007114 2.095092,6.0064669 3.0304836,6.005854 4.1607409,6.005744 5.616693,6.0056184 15.243979,6.069958 15.28829,6.076689 c 0.110327,0.016751 0.203185,0.060303 0.283063,0.1327585 0.06052,0.054898 0.08586,0.091862 0.119084,0.1736962 l 0.02424,0.059721 0.06809,1.4953857 c 0.0478,1.049102 0.066,1.5114417 0.06108,1.5491848 -0.01727,0.1324187 -0.08574,0.2532348 -0.173035,0.3339847 z M 2.0983041,8.148923 C 2.1258421,8.1010911 2.1543604,8.0057984 2.1566947,7.9538133 2.1622064,7.8310544 2.1117972,7.7049342 2.0203282,7.6126346 1.8634616,7.4543434 1.6429721,7.4298952 1.4554744,7.5500024 1.3983157,7.5866172 1.3245625,7.6677684 1.2931941,7.7285604 1.247011,7.8180641 1.2314275,7.92564 1.2521461,8.0119307 1.2920208,8.1780039 1.3872857,8.2965094 1.5268654,8.3536673 1.659067,8.4078046 1.792453,8.3988226 1.920594,8.3271542 1.992311,8.2870438 2.0549565,8.2242145 2.0983041,8.148923 Z"
       id="path1" /></g></svg>
