<?xml version="1.0" encoding="UTF-8" standalone="no"?>
<!-- Uploaded to: SVG Repo, www.svgrepo.com, Generator: SVG Repo Mixer Tools -->

<svg
   width="16"
   height="16"
   viewBox="0 0 0.48000001 0.48"
   fill="none"
   version="1.1"
   id="svg4"
   xmlns="http://www.w3.org/2000/svg"
   xmlns:svg="http://www.w3.org/2000/svg">
  <defs
     id="defs8" />
  <g
     aria-label="3D"
     id="text896"
     style="font-size:0.372582px;line-height:1.25;-inkscape-font-specification:sans-serif;fill:#fc7f7f;stroke-width:0.0931453"
     transform="matrix(1.0769737,0,0,1.0769737,-0.01787172,-0.02047959)">
    <path
       d="m 0.18355374,0.17107233 q 0,0.0268259 -0.0152759,0.0428469 -0.0149033,0.0156485 -0.0398663,0.0208646 v 0.00149 q 0.0316695,0.003726 0.0473179,0.0201194 0.016021,0.0163936 0.016021,0.0428469 0,0.0234727 -0.0108049,0.0413566 -0.0108049,0.0178839 -0.0335324,0.0279436 -0.0223549,0.0100597 -0.05775021,0.0100597 -0.02086459,0 -0.03874853,-0.003353 -0.01788393,-0.002981 -0.03427754,-0.0111775 v -0.0305517 q 0.01676619,0.008569 0.03614045,0.0130404 0.01937427,0.004471 0.0372582,0.004471 0.03576787,0 0.05141632,-0.0137855 0.016021,-0.0141581 0.016021,-0.0387485 0,-0.024963 -0.0197468,-0.0357679 Q 0.11835189,0.25155004 0.0829566,0.25155004 H 0.05724845 v -0.0279436 h 0.02608074 q 0.03278721,0 0.0495534,-0.0137855 0.0171388,-0.0137855 0.0171388,-0.036513 0,-0.0193743 -0.0130404,-0.0298066 -0.0130404,-0.0108049 -0.0353953,-0.0108049 -0.02160975,0 -0.03688561,0.006334 -0.01527586,0.006334 -0.03017914,0.016021 l -0.0163936,-0.0223551 q 0.01415811,-0.0111775 0.0350227,-0.0193743 0.02123718,-0.008197 0.04806308,-0.008197 0.0417292,0 0.0618486,0.0186291 0.020492,0.0186291 0.020492,0.0473182 z"
       id="path1620" />
    <path
       d="m 0.46224525,0.23925484 q 0,0.0674373 -0.0368856,0.10171488 -0.036513,0.033905 -0.10208746,0.033905 H 0.24912835 V 0.10885114 h 0.081968 q 0.0398663,0 0.0693003,0.0149033 0.0298066,0.0149033 0.0458276,0.0439647 0.016021,0.0290614 0.016021,0.0715357 z m -0.0353953,0.001118 q 0,-0.0532792 -0.0264533,-0.0778696 -0.0260807,-0.024963 -0.0741438,-0.024963 h -0.0435921 v 0.20864592 h 0.0361404 q 0.10804878,0 0.1080488,-0.10581332 z"
       id="path1622" />
  </g>
</svg>
