<?xml version="1.0" encoding="UTF-8" standalone="no"?>
<!-- Created with Inkscape (http://www.inkscape.org/) -->

<svg
   version="1.1"
   id="svg753"
   width="15.999996"
   height="16"
   viewBox="0 0 15.999996 15.999999"
   sodipodi:docname="project_icon.svg"
   xmlns:inkscape="http://www.inkscape.org/namespaces/inkscape"
   xmlns:sodipodi="http://sodipodi.sourceforge.net/DTD/sodipodi-0.dtd"
   xmlns="http://www.w3.org/2000/svg"
   xmlns:svg="http://www.w3.org/2000/svg">
  <sodipodi:namedview
     id="namedview1023"
     pagecolor="#ffffff"
     bordercolor="#666666"
     borderopacity="1.0"
     inkscape:showpageshadow="2"
     inkscape:pageopacity="0.0"
     inkscape:pagecheckerboard="0"
     inkscape:deskcolor="#d1d1d1"
     showgrid="false" />
  <defs
     id="defs757" />
  <g
     id="g759"
     transform="translate(-44.534061,-81.198105)"
     style="fill:#e0e0e0;fill-opacity:1">
    <path
       style="fill:#e0e0e0;fill-opacity:1;stroke-width:0.0375688"
       d="m 45.783268,95.566144 c -0.552323,-0.119983 -0.986737,-0.514008 -1.171555,-1.06263 -0.07697,-0.228477 -0.07765,-0.275144 -0.07765,-5.304662 0,-5.005602 10e-4,-5.077227 0.07653,-5.301342 0.09986,-0.29644 0.208133,-0.462689 0.445533,-0.684116 0.227495,-0.21219 0.512739,-0.352503 0.81836,-0.402556 0.284941,-0.04667 4.360122,-0.04667 4.645063,0 0.437839,0.07171 0.588749,0.174969 1.322793,0.905128 l 0.677665,0.67408 h 3.306264 c 3.815228,0 3.548614,-0.02182 4.089539,0.334744 0.213008,0.14041 0.459508,0.49435 0.548426,0.787463 0.07407,0.24418 0.07535,0.333651 0.06545,4.571432 l -0.0101,4.322378 -0.141228,0.285737 c -0.234757,0.474969 -0.656272,0.79537 -1.171188,0.890243 -0.156171,0.02877 -2.164139,0.04018 -6.706029,0.03809 -5.311328,-0.0024 -6.525541,-0.0122 -6.717871,-0.05398 z"
       id="path880" />
  </g>
</svg>
