<?xml version="1.0" encoding="UTF-8" standalone="no"?>
<!-- Uploaded to: SVG Repo, www.svgrepo.com, Generator: SVG Repo Mixer Tools -->

<svg
   width="16"
   height="16"
   viewBox="0 0 0.48000001 0.48"
   fill="none"
   version="1.1"
   id="svg4"
   xmlns="http://www.w3.org/2000/svg"
   xmlns:svg="http://www.w3.org/2000/svg">
  <defs
     id="defs8" />
  <g
     aria-label="2D"
     id="text896"
     style="font-size:0.372582px;line-height:1.25;-inkscape-font-specification:sans-serif;fill:#8da5f3;stroke-width:0.0931453">
    <path
       d="M 0.19361345,0.37487468 H 0.01775476 V 0.3476762 l 0.06967283,-0.070418 q 0.01974684,-0.0201194 0.03353238,-0.0357679 0.0141581,-0.0156484 0.0212372,-0.0305517 0.007079,-0.0149033 0.007079,-0.0331598 0,-0.0219823 -0.0130404,-0.0331598 -0.0130404,-0.01155 -0.033905,-0.01155 -0.01974685,0 -0.03427755,0.006706 Q 0.05352253,0.146481 0.03824667,0.1584041 L 0.02073541,0.13642221 q 0.01564845,-0.0130404 0.03576787,-0.0219823 0.02049201,-0.009315 0.04582759,-0.009315 0.0372582,0 0.0588679,0.0190017 0.0216098,0.0190017 0.0216098,0.0517889 0,0.0208646 -0.008569,0.0391211 -0.008569,0.0182565 -0.0238452,0.0361405 -0.0152759,0.0178839 -0.0357679,0.0376308 l -0.05551471,0.0547696 v 0.00149 h 0.13450209 z"
       id="path659" />
    <path
       d="m 0.46224525,0.23925484 q 0,0.0674373 -0.0368856,0.10171488 -0.036513,0.033905 -0.10208746,0.033905 H 0.24912835 V 0.10885114 h 0.081968 q 0.0398663,0 0.0693003,0.0149033 0.0298066,0.0149033 0.0458276,0.0439647 0.016021,0.0290614 0.016021,0.0715357 z m -0.0353953,0.001118 q 0,-0.0532792 -0.0264533,-0.0778696 -0.0260807,-0.024963 -0.0741438,-0.024963 h -0.0435921 v 0.20864592 h 0.0361404 q 0.10804878,0 0.1080488,-0.10581332 z"
       id="path661" />
  </g>
</svg>
