<?xml version="1.0" encoding="UTF-8" standalone="no"?>
<!-- Uploaded to: SVG Repo, www.svgrepo.com, Generator: SVG Repo Mixer Tools -->

<svg
   width="16"
   height="16"
   viewBox="0 0 0.48000001 0.48"
   fill="none"
   version="1.1"
   id="svg4"
   sodipodi:docname="filter_2d3d.svg"
   inkscape:export-filename="filter_2d3d.svg"
   inkscape:export-xdpi="96"
   inkscape:export-ydpi="96"
   inkscape:version="1.2.2 (b0a8486541, 2022-12-01)"
   xmlns:inkscape="http://www.inkscape.org/namespaces/inkscape"
   xmlns:sodipodi="http://sodipodi.sourceforge.net/DTD/sodipodi-0.dtd"
   xmlns="http://www.w3.org/2000/svg"
   xmlns:svg="http://www.w3.org/2000/svg">
  <sodipodi:namedview
     id="namedview5"
     pagecolor="#ffffff"
     bordercolor="#666666"
     borderopacity="1.0"
     inkscape:showpageshadow="2"
     inkscape:pageopacity="0.0"
     inkscape:pagecheckerboard="0"
     inkscape:deskcolor="#d1d1d1"
     showgrid="false"
     inkscape:zoom="32"
     inkscape:cx="10.34375"
     inkscape:cy="6.453125"
     inkscape:window-width="1718"
     inkscape:window-height="1341"
     inkscape:window-x="1712"
     inkscape:window-y="0"
     inkscape:window-maximized="0"
     inkscape:current-layer="svg4" />
  <defs
     id="defs8">
    <inkscape:path-effect
       effect="bspline"
       id="path-effect1013"
       is_visible="true"
       lpeversion="1"
       weight="33.333333"
       steps="2"
       helper_size="0"
       apply_no_weight="true"
       apply_with_weight="true"
       only_selected="false" />
  </defs>
  <g
     aria-label="2D"
     id="text896"
     style="font-size:0.215735px;line-height:1.25;-inkscape-font-specification:sans-serif;display:inline;fill:#8da5f3;stroke-width:0.0539336"
     transform="matrix(1.2039077,0,0,1.2039077,-0.01926106,-0.02704282)">
    <path
       d="M 0.11795934,0.17880061 H 0.01613242 v -0.0157487 l 0.04034244,-0.0407739 q 0.01143396,-0.0116497 0.01941615,-0.0207106 0.0081979,-0.0090609 0.0122969,-0.01769027 0.004099,-0.0086294 0.004099,-0.01920041 0,-0.01272837 -0.0075507,-0.01920042 -0.0075507,-0.0066878 -0.01963189,-0.0066878 -0.01143395,0 -0.01984762,0.0038832 Q 0.036843,0.04655491 0.0279979,0.05345846 L 0.0178583,0.04073021 q 0.0090609,-0.0075507 0.02071056,-0.01272836 0.01186542,-0.0053934 0.0265354,-0.0053934 0.0215735,0 0.03408613,0.01100249 0.01251263,0.01100248 0.01251263,0.02998716 0,0.01208116 -0.004962,0.02265218 -0.004962,0.01057101 -0.01380704,0.02092629 -0.0088451,0.0103553 -0.02071056,0.0217892 L 0.040079,0.16067887 v 8.6294e-4 h 0.07788034 z"
       id="path454" />
    <path
       d="m 0.27350439,0.10027307 q 0,0.039048 -0.0213578,0.0588957 -0.021142,0.0196319 -0.0591114,0.0196319 H 0.15010396 V 0.02476582 h 0.0474617 q 0.0230836,0 0.0401267,0.0086294 0.0172588,0.0086294 0.0265354,0.02545673 0.009277,0.01682733 0.009277,0.04142112 z m -0.0204948,6.4721e-4 q 0,-0.03085011 -0.0153172,-0.04508862 -0.0151015,-0.01445424 -0.0429313,-0.01445424 h -0.025241 v 0.1208116 h 0.0209263 q 0.0625632,0 0.0625632,-0.0612687 z"
       id="path456" />
  </g>
  <g
     aria-label="3D"
     id="text896-5"
     style="font-size:0.215735px;line-height:1.85;-inkscape-font-specification:sans-serif;fill:#fc7f7f;stroke-width:0.0539455"
     transform="matrix(1.2039077,0,0,1.2039077,-0.08040298,-0.06957951)">
    <path
       d="m 0.30404775,0.33633919 q 0,0.0155329 -0.008845,0.0248095 -0.008629,0.009061 -0.0230837,0.0120812 v 8.6294e-4 q 0.0183375,0.002157 0.0273983,0.0116497 0.009277,0.009492 0.009277,0.0248095 0,0.0135913 -0.006256,0.0239466 -0.006256,0.0103553 -0.0194162,0.0161801 -0.0129441,0.005825 -0.0334389,0.005825 -0.0120812,0 -0.0224364,-0.001942 -0.0103553,-0.001726 -0.0198476,-0.006472 v -0.0176903 q 0.009708,0.004962 0.0209263,0.007551 0.0112182,0.002589 0.0215735,0.002589 0.0207106,0 0.0297714,-0.007982 0.009277,-0.008198 0.009277,-0.0224364 0,-0.0144542 -0.0114339,-0.0207106 -0.0112182,-0.006472 -0.0317131,-0.006472 h -0.0148857 v -0.0161801 h 0.0151014 q 0.0189847,0 0.0286928,-0.007982 0.009924,-0.007982 0.009924,-0.021142 0,-0.0112182 -0.007551,-0.0172588 -0.007551,-0.006256 -0.0204948,-0.006256 -0.0125126,0 -0.0213578,0.003667 -0.008845,0.003667 -0.0174745,0.009277 l -0.009492,-0.0129441 q 0.008198,-0.006472 0.0202791,-0.0112182 0.0122969,-0.004746 0.0278298,-0.004746 0.0241623,0 0.035812,0.0107868 0.0118654,0.0107868 0.0118654,0.0273983 z"
       id="path449" />
    <path
       d="m 0.46541765,0.3758187 q 0,0.039048 -0.0213578,0.0588957 -0.021142,0.0196319 -0.0591114,0.0196319 H 0.34201722 V 0.30031145 h 0.0474617 q 0.0230836,0 0.0401267,0.008629 0.0172588,0.008629 0.0265354,0.0254567 0.009277,0.0168273 0.009277,0.0414216 z m -0.0204948,6.472e-4 q 0,-0.0308501 -0.0153172,-0.0450886 -0.0151015,-0.0144542 -0.0429313,-0.0144542 h -0.025241 v 0.1208116 h 0.0209263 q 0.0625632,0 0.0625632,-0.0612688 z"
       id="path451" />
  </g>
</svg>
