<?xml version="1.0" encoding="UTF-8" standalone="no"?>
<!-- Created with Inkscape (http://www.inkscape.org/) -->

<svg
   version="1.1"
   id="svg753"
   width="15.999996"
   height="16"
   viewBox="0 0 15.999996 15.999999"
   xmlns="http://www.w3.org/2000/svg"
   xmlns:svg="http://www.w3.org/2000/svg">
  <defs
     id="defs757" />
  <g
     id="g759"
     transform="translate(-44.534061,-81.198105)">
    <path
       style="fill:#666666;stroke-width:0.0375688"
       d="m 45.783268,95.566144 c -0.552323,-0.119983 -0.986737,-0.514008 -1.171555,-1.06263 -0.07697,-0.228477 -0.07765,-0.275144 -0.07765,-5.304662 0,-5.005602 10e-4,-5.077227 0.07653,-5.301342 0.09986,-0.29644 0.208133,-0.462689 0.445533,-0.684116 0.227495,-0.21219 0.512739,-0.352503 0.81836,-0.402556 0.284941,-0.04667 4.360122,-0.04667 4.645063,0 0.437839,0.07171 0.588749,0.174969 1.322793,0.905128 l 0.677665,0.67408 h 3.306264 c 3.815228,0 3.548614,-0.02182 4.089539,0.334744 0.213008,0.14041 0.459508,0.49435 0.548426,0.787463 0.07407,0.24418 0.07535,0.333651 0.06545,4.571432 l -0.0101,4.322378 -0.141228,0.285737 c -0.234757,0.474969 -0.656272,0.79537 -1.171188,0.890243 -0.156171,0.02877 -2.164139,0.04018 -6.706029,0.03809 -5.311328,-0.0024 -6.525541,-0.0122 -6.717871,-0.05398 z M 58.127345,92.678367 58.115181,92.138021 57.9727,91.931314 C 57.671265,91.494 56.951236,91.13078 55.973001,90.922561 c -0.585944,-0.124719 -1.478791,-0.12623 -2.052927,-0.0035 -1.009011,0.215736 -1.702513,0.559763 -2.020132,1.002131 l -0.133887,0.186473 -0.0121,0.555512 -0.0121,0.555511 h 3.198826 3.198826 z m -2.501509,-2.837818 c 0.957678,-0.475261 1.211917,-1.702949 0.516311,-2.4932 -0.629899,-0.715603 -1.721893,-0.731907 -2.373361,-0.03544 -0.786972,0.841337 -0.450614,2.195743 0.645934,2.600974 0.167628,0.06195 0.277378,0.07416 0.582251,0.06482 0.338163,-0.01037 0.400976,-0.02407 0.628865,-0.137158 z"
       id="path880" />
  </g>
</svg>
