<?xml version="1.0" encoding="UTF-8" standalone="no"?>
<!-- Uploaded to: SVG Repo, www.svgrepo.com, Generator: SVG Repo Mixer Tools -->

<svg
   width="16"
   height="16"
   viewBox="0 0 0.48000001 0.48"
   fill="none"
   version="1.1"
   id="svg4"
   xmlns="http://www.w3.org/2000/svg"
   xmlns:svg="http://www.w3.org/2000/svg">
  <defs
     id="defs8" />
  <path
     style="fill:#cccccc;stroke:#ffffff;stroke-width:0.000148816;stroke-linecap:round;stroke-linejoin:round"
     d="M 0.2345733,0.45559026 C 0.2279193,0.45460686 0.2209158,0.45076126 0.212789,0.44362936 0.1694935,0.40563366 0.1024795,0.34337816 0.0773234,0.31778286 0.0476455,0.28758666 0.0317428,0.26922536 0.0229331,0.25498346 0.0125881,0.23825946 0.0061366,0.22171476 0.0021664,0.20172736 1.96404e-4,0.19182736 -5.73596e-4,0.16840336 6.96404e-4,0.15756536 0.0039264,0.13020236 0.0144934,0.10408436 0.0313564,0.08180736 c 0.00549,-0.00725 0.018622,-0.020803 0.02575,-0.026574 0.043057,-0.034855 0.098551,-0.040853 0.1491406,-0.016121 0.00973,0.00476 0.023242,0.013344 0.029769,0.01892 0.00205,0.00175 0.00395,0.00319 0.00422,0.00319 2.707e-4,0 0.00217,-0.00143 0.00422,-0.00319 0.010594,-0.00905 0.031213,-0.020674 0.045522,-0.025662 0.01772,-0.00618 0.031737,-0.00833 0.050671,-0.00777 0.01513,4.424e-4 0.025047,0.00209 0.037926,0.00631 0.00832,0.00272 0.023672,0.010023 0.031064,0.014768 0.033095,0.021248 0.05727,0.05449 0.066442,0.091363 0.00363,0.014587 0.00399,0.017996 0.00399,0.037237 -4.3e-6,0.015976 -1.974e-4,0.019019 -0.00167,0.026368 -0.00524,0.026085 -0.014536,0.046832 -0.030042,0.067047 -0.018865,0.024594 -0.069892,0.07553 -0.1348175,0.1345761 -0.026556,0.024151 -0.05056,0.045381 -0.053945,0.047709 -0.00682,0.00469 -0.016523,0.00687 -0.025024,0.00561 z m 0.030696,-0.074041 c 0.072775,-0.065632 0.1219833,-0.1138693 0.1434811,-0.140651 0.016242,-0.020235 0.024002,-0.042027 0.024009,-0.067431 4.3e-6,-0.016221 -0.00288,-0.029117 -0.00971,-0.043359 -0.00642,-0.01341 -0.014847,-0.024586 -0.025637,-0.034019 -0.018541,-0.01621 -0.038313,-0.024034 -0.060735,-0.024034 -0.015081,0 -0.029546,0.00369 -0.043916,0.01119 -0.010971,0.00573 -0.018125,0.011142 -0.029041,0.021968 -0.01189,0.011793 -0.01476,0.013436 -0.023485,0.013436 -0.00872,0 -0.011596,-0.00164 -0.023485,-0.013436 -0.01094,-0.010851 -0.018112,-0.016271 -0.029032,-0.021942 -0.024132,-0.01253 -0.049599,-0.014904 -0.072658,-0.00677 -0.033517,0.011818 -0.060113,0.044537 -0.066306,0.081569 -0.00194,0.011618 -0.00118,0.030085 0.00171,0.041256 0.0038,0.014704 0.01061,0.028515 0.019776,0.040103 0.018389,0.02325 0.068718,0.073186 0.1284603,0.1274579 0.029793,0.027065 0.040831,0.036762 0.041641,0.036581 4.554e-4,-1.011e-4 0.011671,-0.00996 0.024923,-0.021915 z"
     id="path637" />
</svg>
