<?xml version="1.0" encoding="UTF-8" standalone="no"?>
<!-- Uploaded to: SVG Repo, www.svgrepo.com, Generator: SVG Repo Mixer Tools -->

<svg
   width="16"
   height="16"
   viewBox="0 0 0.48000001 0.48"
   fill="none"
   version="1.1"
   id="svg4"
   xmlns="http://www.w3.org/2000/svg"
   xmlns:svg="http://www.w3.org/2000/svg">
  <defs
     id="defs8" />
  <path
     style="fill:#ffffff;fill-opacity:1;stroke:#ffffff;stroke-width:0.000112613;stroke-linecap:round;stroke-linejoin:round"
     d="m 0.23591128,0.40314237 c -0.005035,-7.4416e-4 -0.010335,-0.003654 -0.0164847,-0.009051 C 0.18666382,0.365339 0.1359527,0.31822876 0.11691647,0.29886018 0.09445848,0.27600998 0.08242453,0.26211554 0.07575801,0.25133835 0.0679297,0.23868289 0.06304769,0.22616312 0.06004335,0.21103817 0.0585526,0.2035466 0.05796993,0.18582109 0.05893097,0.17761971 c 0.0024442,-0.0207062 0.01044052,-0.0404704 0.02320116,-0.0573279 0.0041544,-0.005486 0.01409172,-0.0157421 0.01948565,-0.0201092 0.0325823,-0.02637563 0.0745759,-0.03091446 0.1128583,-0.01219915 0.007363,0.003602 0.0175878,0.01009772 0.0225269,0.01431722 0.001551,0.001324 0.002989,0.002414 0.003193,0.002414 2.0485e-4,0 0.001642,-0.001082 0.003193,-0.002414 0.008017,-0.0068484 0.0236196,-0.01564452 0.0344476,-0.01941906 0.0134092,-0.0046766 0.0240162,-0.0063035 0.038344,-0.0058798 0.0114492,3.3478e-4 0.0189537,0.0015816 0.0286995,0.0047749 0.006296,0.0020583 0.0179132,0.0075846 0.0235069,0.01117531 0.0250438,0.01607887 0.0433376,0.0412339 0.0502783,0.06913659 0.002747,0.0110383 0.003019,0.013618 0.003019,0.0281781 -3.26e-6,0.0120894 -1.4938e-4,0.0143921 -0.001264,0.0199533 -0.003965,0.0197392 -0.0109997,0.0354389 -0.0227335,0.0507361 -0.0142756,0.0186109 -0.052889,0.0571554 -0.10201967,0.10183699 -0.0200956,0.0182756 -0.03826,0.0343409 -0.0408215,0.0361026 -0.005161,0.003549 -0.0125034,0.005199 -0.0189363,0.004245 z m 0.0232284,-0.0560286 C 0.31421028,0.29744847 0.35144738,0.26094617 0.3677153,0.24067976 0.380006,0.22536746 0.3858782,0.20887696 0.3858835,0.18965306 0.38588676,0.17737826 0.3837045,0.16761956 0.3785355,0.15684226 0.3736775,0.14669456 0.3673004,0.13823746 0.3591354,0.13109926 0.345105,0.11883276 0.330143,0.11291216 0.3131758,0.11291216 c -0.0114122,0 -0.0223582,0.002792 -0.0332323,0.008468 -0.008302,0.004336 -0.0137156,0.008431 -0.021976,0.0166237 -0.008997,0.008924 -0.0111693,0.0101673 -0.0177717,0.0101673 -0.006599,0 -0.008775,-0.001241 -0.0177717,-0.0101673 -0.008279,-0.008211 -0.0137058,-0.0123127 -0.0219692,-0.016604 -0.0182613,-0.009482 -0.0375328,-0.0112782 -0.0549821,-0.005123 -0.0253631,0.008943 -0.04548896,0.0337022 -0.05017535,0.0617252 -0.001468,0.008792 -8.9294e-4,0.0227661 0.001294,0.0312194 0.0028756,0.0111269 0.0080289,0.021578 0.01496498,0.0303469 0.0139154,0.0175938 0.0520006,0.0553816 0.097209,0.0964505 0.0225451,0.0204807 0.0308978,0.0278187 0.0315108,0.0276817 3.4461e-4,-7.651e-5 0.008832,-0.007537 0.0188598,-0.0165836 z"
     id="path637" />
</svg>
