<?xml version="1.0" encoding="UTF-8" standalone="no"?>
<!-- Created with Inkscape (http://www.inkscape.org/) -->

<svg
   version="1.1"
   id="svg419"
   width="16"
   height="16"
   viewBox="0 0 16 16"
   xmlns="http://www.w3.org/2000/svg"
   xmlns:svg="http://www.w3.org/2000/svg">
  <defs
     id="defs423" />
  <g
     id="g425"
     transform="matrix(0.89051949,0,0,0.89051949,-26.558152,-45.640731)">
    <path
       style="fill:#666666;stroke-width:0.0401029"
       d="m 37.924275,68.203749 c -1.477923,-0.105063 -2.991943,-0.555835 -4.315506,-1.284858 -0.543575,-0.299403 -0.557637,-0.331848 -0.553757,-1.277586 0.0026,-0.617972 0.01819,-0.808894 0.09375,-1.142932 0.516622,-2.284032 2.222544,-3.972641 4.526325,-4.480393 0.514547,-0.113406 1.563242,-0.121108 2.133095,-0.01566 0.424734,0.07859 1.226781,0.335173 1.540107,0.492698 0.304564,0.153118 0.848971,0.514615 1.169838,0.776794 0.930963,0.760682 1.64335,1.930798 1.915558,3.146362 0.105568,0.47144 0.159259,1.130238 0.129089,1.584062 -0.03832,0.576348 -0.08766,0.657337 -0.558471,0.916662 -1.838414,1.012605 -3.870138,1.441959 -6.08003,1.284858 z m -6.682959,-2.081578 c -0.541373,-0.122325 -1.130004,-0.318188 -1.239085,-0.412296 -0.24121,-0.208101 -0.238297,-0.977579 0.0065,-1.712789 0.381552,-1.146 1.397195,-1.954958 2.688306,-2.141232 l 0.166578,-0.02404 -0.308782,0.611425 c -0.555781,1.100517 -0.80638,2.137508 -0.80638,3.336837 0,0.491747 0.03894,0.465475 -0.507122,0.342088 z m 14.623322,-0.366983 c 0,-0.496223 -0.07827,-1.218807 -0.178138,-1.644594 -0.153919,-0.656224 -0.504701,-1.525005 -0.827681,-2.049915 -0.06693,-0.108779 -0.11409,-0.20538 -0.104804,-0.214673 0.03522,-0.03522 0.620308,0.07882 0.874532,0.170442 0.491379,0.177088 0.795169,0.374171 1.198553,0.777554 0.220681,0.220682 0.444683,0.490653 0.532388,0.641646 0.44361,0.763711 0.578161,2.020264 0.24444,2.282768 -0.141821,0.111553 -1.073509,0.389257 -1.568859,0.467617 l -0.170438,0.02696 z M 32.478657,60.489751 c -0.502895,-0.114522 -1.044194,-0.439247 -1.38904,-0.833283 -0.356542,-0.407399 -0.624468,-1.125974 -0.624468,-1.674806 0,-0.112148 0.02823,-0.340614 0.06276,-0.507716 0.2051,-0.992953 0.928382,-1.743117 1.906797,-1.97767 0.425935,-0.102109 0.768124,-0.102109 1.194058,0 0.978416,0.234553 1.701698,0.984717 1.906797,1.97767 0.119348,0.577807 0.04678,1.107047 -0.22908,1.670697 -0.285393,0.583129 -0.876495,1.086292 -1.512792,1.287732 -0.341268,0.108038 -0.971754,0.135547 -1.315026,0.05738 z m 11.549616,0 c -0.502894,-0.114522 -1.044194,-0.439247 -1.389039,-0.833283 -0.35654,-0.407399 -0.624469,-1.125974 -0.624469,-1.674806 0,-0.112148 0.02824,-0.340614 0.06276,-0.507716 0.205099,-0.992953 0.928381,-1.743117 1.906796,-1.97767 0.425934,-0.102109 0.768124,-0.102109 1.194059,0 0.978414,0.234553 1.701697,0.984717 1.906796,1.97767 0.11935,0.577807 0.04678,1.107047 -0.22908,1.670697 -0.285393,0.583129 -0.876495,1.086292 -1.512791,1.287732 -0.341267,0.108038 -0.971753,0.135547 -1.315028,0.05738 z M 38.204996,58.56228 c -1.24438,-0.255355 -2.165393,-1.130414 -2.510613,-2.385341 -0.05112,-0.185829 -0.07168,-0.404366 -0.07168,-0.761859 0,-0.357493 0.02056,-0.576031 0.07168,-0.76186 0.314192,-1.142134 1.116463,-1.980534 2.209841,-2.309355 0.315246,-0.09481 0.429445,-0.108543 0.902314,-0.108543 0.472869,0 0.587069,0.01373 0.902314,0.108543 1.093378,0.328821 1.895649,1.167221 2.209841,2.309355 0.108577,0.394724 0.100716,1.166468 -0.01606,1.575884 -0.176552,0.618974 -0.456919,1.079632 -0.926957,1.523042 -0.745389,0.703163 -1.795577,1.010232 -2.770682,0.810134 z"
       id="path546" />
  </g>
</svg>
