<?xml version="1.0" encoding="UTF-8" standalone="no"?>
<!-- Created with Inkscape (http://www.inkscape.org/) -->

<svg
   width="16"
   height="16"
   viewBox="0 0 16 16"
   version="1.1"
   id="svg1"
   xml:space="preserve"
   xmlns="http://www.w3.org/2000/svg"
   xmlns:svg="http://www.w3.org/2000/svg"><defs
     id="defs1" /><g
     id="layer1"><path
       style="fill:#666666;fill-opacity:1"
       d="M 6.9977741,14.665568 C 6.8019658,14.639419 6.6402141,14.555257 6.4890172,14.400851 6.2784567,14.185823 0.73452611,7.9992104 0.63959508,7.8733333 c -0.31003722,-0.4111046 -0.52588296,-0.87968 -0.60804801,-1.32 -0.02361102,-0.1265307 -0.0248804,-0.239794 -0.0248804,-2.22 V 2.2466667 L 0.03657189,2.1345029 C 0.1233816,1.8089109 0.32490917,1.558647 0.60793228,1.4249678 0.82973063,1.3202066 0.65212846,1.3282078 2.8666667,1.3232092 c 1.2690868,-0.00286 2.043312,4.293e-4 2.1563335,0.00917 0.2256559,0.017459 0.4048232,0.053972 0.6303331,0.1284577 0.2002357,0.066138 0.6156195,0.2652116 0.6735706,0.3228109 0.020114,0.019992 1.3932887,1.5261128 3.0514999,3.3469359 2.1360412,2.3455112 3.0372152,3.3440223 3.0913782,3.4252819 0.134857,0.2023221 0.200912,0.4158162 0.201356,0.6507973 3.36e-4,0.1780396 -0.02204,0.2730958 -0.105149,0.4466666 L 12.505339,9.78 10.196003,12.083393 C 8.5758642,13.699362 7.8577269,14.406965 7.7896964,14.454401 7.5510157,14.620826 7.2546038,14.699865 6.9977741,14.665568 Z M 2.9,4.9517355 C 3.0174589,4.925935 3.2128221,4.832089 3.3,4.7595888 3.5058635,4.5883854 3.6351078,4.3221562 3.6496302,4.0393888 3.6745356,3.5544513 3.390473,3.1633541 2.9219137,3.037469 2.7790736,2.9990929 2.5401358,2.9993149 2.3961771,3.0379573 2.1842265,3.0948505 1.988051,3.2275545 1.8794204,3.3875202 1.6703529,3.6953858 1.6191796,4.0227129 1.7318511,4.33144 1.8385667,4.6238479 2.048711,4.8255709 2.3521542,4.9268854 2.5219828,4.9835883 2.715107,4.9923483 2.9,4.9517355 Z"
       id="path1" /></g></svg>
