<?xml version="1.0" encoding="UTF-8" standalone="no"?>
<svg
   width="16"
   height="16"
   version="1.1"
   id="svg1"
   xml:space="preserve"
   xmlns="http://www.w3.org/2000/svg"
   xmlns:svg="http://www.w3.org/2000/svg"><defs
     id="defs1" /><g
     fill="#e0e0e0"
     id="g1"
     transform="matrix(0.80026581,0,0,0.80026581,1.6672383,1.5988635)"
     style="display:inline"><circle
       cx="8"
       cy="8"
       r="2"
       id="circle1" /><path
       d="M 8,1 C 1.6911607,0.92657494 -1.4872436,8.5810299 3.018,12.998 L 5.0809215,12.276485 C 0.46709561,8.2140109 4.0674137,2.8215915 8.0291404,2.9926354 12.474471,3.1845584 14.560522,8.4222482 11.444,11.531 l 1.416,1.416 C 17.235567,8.5676408 14.190135,1.0812665 8,1 Z"
       id="path1" /></g><circle
     cx="8"
     cy="8"
     r="1.6005752"
     id="circle1-6"
     style="fill:#e0e0e0;stroke-width:0.800288" /><path
     d="M 2.4983794,10.283216 C 2.4778834,9.2164831 0.87760011,9.2470511 0.89809621,10.313786 l 0.0764218,4.000707 c 0.008442,0.441905 0.37352019,0.793298 0.81542609,0.784857 l 4.000708,-0.07642 C 6.8570207,15.00208 6.826452,13.4018 5.7600831,13.422647 L 3.6909172,13.462177 5.7303197,11.42231 3.5527253,11.29804 2.5379048,12.352385 Z"
     id="path1-8"
     style="fill:#e0e0e0;stroke-width:0.800288" /><path
     d="M 10.209341,0.97707299 C 9.1427571,0.99771417 9.1733261,2.5979969 10.239907,2.5773558 l 2.069165,-0.039528 -1.01482,1.0543462 1.153013,1.1097877 1.01482,-1.0543453 0.03953,2.069166 c 0.02085,1.0663693 1.62113,1.0358006 1.600284,-0.030567 L 15.025479,1.685508 c -0.0085,-0.4419061 -0.37352,-0.79329913 -0.815426,-0.7848575 z"
     id="path2"
     style="fill:#e0e0e0;stroke-width:0.800288" /></svg>
